<?xml version="1.0" encoding="utf-8"?>
<svg version="1.1" xmlns:xlink="http://www.w3.org/1999/xlink" width="50px" height="50px" xmlns="http://www.w3.org/2000/svg">
  <g transform="matrix(1 0 0 1 -15 -227 )">
    <path d="M 15 227  L 65 227  L 65 277  L 15 277  L 15 227  " fill-rule="nonzero" fill="#cccccc" stroke="none" />
    <path d="M 19 231  L 61 231  L 61 273  L 19 273  L 19 231  " fill-rule="nonzero" fill="#ffffff" stroke="none" />
    <path d="M 44.75 242  C 42.65 242  41 240.35  41 238.25  C 41 236.15  42.65 234.5  44.75 234.5  C 46.85 234.5  48.5 236.15  48.5 238.25  C 48.5 240.35  46.85 242  44.75 242  " fill-rule="nonzero" fill="#cccccc" stroke="none" />
    <path d="M 21 272  L 21 250.55  L 30.75 240.8  L 44.4 248.6  L 52.2 246.65  L 60 248.6  L 60 272  L 21 272  " fill-rule="nonzero" fill="#169bd5" stroke="none" />
  </g>
</svg>