<?xml version="1.0" encoding="utf-8"?>
<svg version="1.1" xmlns:xlink="http://www.w3.org/1999/xlink" width="20px" height="20px" xmlns="http://www.w3.org/2000/svg">
  <g transform="matrix(1 0 0 1 -147 -905 )">
    <path d="M 157 905  C 162.6 905  167 909.4  167 915  C 167 920.6  162.6 925  157 925  C 151.4 925  147 920.6  147 915  C 147 909.4  151.4 905  157 905  Z " fill-rule="nonzero" fill="#ebedf0" stroke="none" />
    <path d="M 157 905.5  C 162.32 905.5  166.5 909.68  166.5 915  C 166.5 920.32  162.32 924.5  157 924.5  C 151.68 924.5  147.5 920.32  147.5 915  C 147.5 909.68  151.68 905.5  157 905.5  Z " stroke-width="1" stroke="#c8c9cc" fill="none" />
  </g>
</svg>