<?xml version="1.0" encoding="utf-8"?>
<svg version="1.1" xmlns:xlink="http://www.w3.org/1999/xlink" width="272px" height="150px" xmlns="http://www.w3.org/2000/svg">
  <g transform="matrix(1 0 0 1 -68.5 -391.5 )">
    <path d="M 1 146  C -2.67476524877304 139.217722040084  16.1752241238794 127.333333333333  23.7628361858191 118  C 31.8631287970105 105.333333333333  30.4027545210165 97.0928387819002  48.0637140193935 80  C 59.5588144550719 68.8746758891069  64.8884233789835 70  73.3007780587784 65  C 81.2584108639899 59.3333333333333  82.851875495669 55.7615397159064  97.1736764744128 48  C 110.533833772339 40.7596123118511  114.136946762865 41.3333333333333  122.61858190709 38  C 131.073349633252 32.6666666666667  134.970130189542 32.4442189617031  147.982885085574 22  C 160.811890740796 11.7032607472755  156.482797453732 1.73389116386414  168.794621026895 1  C 179.512810510269 0.361103210444298  178.708748791469 6.97387008896635  188.955990220049 17  C 203.958812320292 31.6790962677651  204.99837000815 36.3333333333333  213.019559902201 46  C 222.775061124694 60  232.530562347188 74  242.286063569682 88  C 250.524042379788 98  270.903545427595 108.46068972336  267 118  " stroke-width="3" stroke="#61a5e8" fill="none" transform="matrix(1 0 0 1 70 393 )" />
  </g>
</svg>