<?xml version="1.0" encoding="utf-8"?>
<svg version="1.1" xmlns:xlink="http://www.w3.org/1999/xlink" width="11px" height="11px" xmlns="http://www.w3.org/2000/svg">
  <g transform="matrix(1 0 0 1 -157 -435 )">
    <path d="M 162.5 436  C 165.02 436  167 437.98  167 440.5  C 167 443.02  165.02 445  162.5 445  C 159.98 445  158 443.02  158 440.5  C 158 437.98  159.98 436  162.5 436  Z " fill-rule="nonzero" fill="#ffffff" stroke="none" />
    <path d="M 162.5 436  C 165.02 436  167 437.98  167 440.5  C 167 443.02  165.02 445  162.5 445  C 159.98 445  158 443.02  158 440.5  C 158 437.98  159.98 436  162.5 436  Z " stroke-width="2" stroke="#61a5e8" fill="none" />
  </g>
</svg>