<?xml version="1.0" encoding="utf-8"?>
<svg version="1.1" xmlns:xlink="http://www.w3.org/1999/xlink" width="14px" height="14px" xmlns="http://www.w3.org/2000/svg">
  <g transform="matrix(1 0 0 1 -38 -12 )">
    <path d="M 45 12  C 48.92 12  52 15.08  52 19  C 52 22.92  48.92 26  45 26  C 41.08 26  38 22.92  38 19  C 38 15.08  41.08 12  45 12  Z " fill-rule="nonzero" fill="#f20707" stroke="none" />
    <path d="M 45 12.5  C 48.64 12.5  51.5 15.36  51.5 19  C 51.5 22.64  48.64 25.5  45 25.5  C 41.36 25.5  38.5 22.64  38.5 19  C 38.5 15.36  41.36 12.5  45 12.5  Z " stroke-width="1" stroke="#f20707" fill="none" />
  </g>
</svg>