<?xml version="1.0" encoding="utf-8"?>
<svg version="1.1" xmlns:xlink="http://www.w3.org/1999/xlink" width="335px" height="170px" xmlns="http://www.w3.org/2000/svg">
  <g transform="matrix(1 0 0 1 -20 -190 )">
    <path d="M 20 190  L 355 190  L 355 360  L 20 360  L 20 190  " fill-rule="nonzero" fill="#cccccc" stroke="none" />
    <path d="M 32 202  L 343 202  L 343 348  L 32 348  L 32 202  " fill-rule="nonzero" fill="#ffffff" stroke="none" />
    <path d="M 206.95 241  C 199.81 241  194.2 235.39  194.2 228.25  C 194.2 221.11  199.81 215.5  206.95 215.5  C 214.09 215.5  219.7 221.11  219.7 228.25  C 219.7 235.39  214.09 241  206.95 241  " fill-rule="nonzero" fill="#cccccc" stroke="none" />
    <path d="M 37 344  L 37 268.65  L 112.5 234.4  L 218.2 302.286567164179  L 278.6 254.95  L 339 302.286567164179  L 339 344  L 37 344  " fill-rule="nonzero" fill="#169bd5" stroke="none" />
  </g>
</svg>