<?xml version="1.0" encoding="utf-8"?>
<svg version="1.1" xmlns:xlink="http://www.w3.org/1999/xlink" width="105px" height="32px" xmlns="http://www.w3.org/2000/svg">
  <defs>
    <mask fill="white" id="clip23">
      <path d="M 105 27.4285714285714  L 105 4.57142857142857  C 105 2.01142857142857  102.1125 0  98.4375 0  L 0 0  L 0 32  L 98.4375 32  C 102.1125 32  105 29.9885714285714  105 27.4285714285714  Z " fill-rule="evenodd" />
    </mask>
  </defs>
  <g transform="matrix(1 0 0 1 -176 -103 )">
    <path d="M 105 27.4285714285714  L 105 4.57142857142857  C 105 2.01142857142857  102.1125 0  98.4375 0  L 0 0  L 0 32  L 98.4375 32  C 102.1125 32  105 29.9885714285714  105 27.4285714285714  Z " fill-rule="nonzero" fill="#ffffff" stroke="none" transform="matrix(1 0 0 1 176 103 )" />
    <path d="M 105 27.4285714285714  L 105 4.57142857142857  C 105 2.01142857142857  102.1125 0  98.4375 0  L 0 0  L 0 32  L 98.4375 32  C 102.1125 32  105 29.9885714285714  105 27.4285714285714  Z " stroke-width="2" stroke="#d9d9d9" fill="none" transform="matrix(1 0 0 1 176 103 )" mask="url(#clip23)" />
  </g>
</svg>