<?xml version="1.0" encoding="utf-8"?>
<svg version="1.1" xmlns:xlink="http://www.w3.org/1999/xlink" width="20px" height="20px" xmlns="http://www.w3.org/2000/svg">
  <g transform="matrix(1 0 0 1 -147 -975 )">
    <path d="M 157 975  C 162.6 975  167 979.4  167 985  C 167 990.6  162.6 995  157 995  C 151.4 995  147 990.6  147 985  C 147 979.4  151.4 975  157 975  Z " fill-rule="nonzero" fill="#1989fa" stroke="none" />
    <path d="M 157 975.5  C 162.32 975.5  166.5 979.68  166.5 985  C 166.5 990.32  162.32 994.5  157 994.5  C 151.68 994.5  147.5 990.32  147.5 985  C 147.5 979.68  151.68 975.5  157 975.5  Z " stroke-width="1" stroke="#1989fa" fill="none" />
  </g>
</svg>