<?xml version="1.0" encoding="utf-8"?>
<svg version="1.1" xmlns:xlink="http://www.w3.org/1999/xlink" width="59px" height="60px" xmlns="http://www.w3.org/2000/svg">
  <g transform="matrix(1 0 0 1 -145 -56 )">
    <path d="M 18.3617213596662 0  L 40.2728659996115 0  C 43.2453770991848 0.0447205230977943  45.8566636762423 2.26844724864077  46.480692086568 5.32621118885845  C 47.0052528755821 7.90211182744565  49.2029635956905 9.77366457880453  51.7105944904889 9.77366457880453  C 55.5291038072591 9.77366457880453  58.6335403726707 13.0382608695652  58 17.0575155366846  L 58 50.8975155366845  C 58.6335403726707 54.9156521739128  55.5291038072591 58.181366433424  51.7105944904889 58  L 6.92294588218179 58  C 3.10443656541154 58.181366433424  0 54.9156521739128  0 50.8975155366845  L 0 17.0575155366846  C 0 13.0393788994563  3.10443656541154 9.77366457880453  6.92294588218179 9.77366457880453  C 9.42952973311322 9.77366457880453  11.6282874970886 7.90211176630442  12.1528482861027 5.32621118885845  C 12.7768766391694 2.26956521739066  15.3881632734859 0.0447205230977943  18.3617213596662 0  Z M 43.9751552795028 32.4670807540756  C 43.9751552795028 23.8404969293479  37.3956344031442 16.8149068410323  29.3167701863353 16.8149068410323  C 21.2379059695265 16.8149068410323  14.6583850931678 23.8404969293479  14.6583850931678 32.4670807540756  C 14.6583850931678 41.0936645788047  21.2295297331134 48.1192546671195  29.3167701863353 48.1192546671195  C 37.3956344031442 48.1192546671195  43.9751552795028 41.0936645788047  43.9751552795028 32.4670807540756  Z M 20.9405501494566 32.4670807540756  C 20.9405501494566 27.5310558831522  24.7014729697202 23.522981392663  29.3167701863353 23.522981392663  C 33.9320674602097 23.522981392663  37.6856610306675 27.5388820312503  37.6929902232141 32.4670807540756  C 37.6929902232141 37.4031056250003  33.9320674029501 41.4111801154888  29.3167701863353 41.4111801154888  C 24.6941437199144 41.4111801154888  20.9405501494566 37.3952794769023  20.9405501494566 32.4670807540756  Z " fill-rule="nonzero" fill="#dcdee0" stroke="none" transform="matrix(1 0 0 1 145 56 )" />
  </g>
</svg>