<?xml version="1.0" encoding="utf-8"?>
<svg version="1.1" xmlns:xlink="http://www.w3.org/1999/xlink" width="50px" height="50px" xmlns="http://www.w3.org/2000/svg">
  <g transform="matrix(1 0 0 1 -15 -222 )">
    <path d="M 15 222  L 65 222  L 65 272  L 15 272  L 15 222  " fill-rule="nonzero" fill="#cccccc" stroke="none" />
    <path d="M 19 226  L 61 226  L 61 268  L 19 268  L 19 226  " fill-rule="nonzero" fill="#ffffff" stroke="none" />
    <path d="M 44.75 237  C 42.65 237  41 235.35  41 233.25  C 41 231.15  42.65 229.5  44.75 229.5  C 46.85 229.5  48.5 231.15  48.5 233.25  C 48.5 235.35  46.85 237  44.75 237  " fill-rule="nonzero" fill="#cccccc" stroke="none" />
    <path d="M 21 267  L 21 245.55  L 30.75 235.8  L 44.4 243.6  L 52.2 241.65  L 60 243.6  L 60 267  L 21 267  " fill-rule="nonzero" fill="#169bd5" stroke="none" />
  </g>
</svg>