<?xml version="1.0" encoding="utf-8"?>
<svg version="1.1" xmlns:xlink="http://www.w3.org/1999/xlink" width="6px" height="5px" xmlns="http://www.w3.org/2000/svg">
  <g transform="matrix(1 0 0 1 -3 -4 )">
    <path d="M 2.28545646836191 3.2432909426375  C 2.27348887049084 3.2432909426375  2.26162327616795 3.24372770195151  2.24987476759314 3.24458614311059  L 5.16744996806624 0.164487176818454  C 5.35026430277942 -0.0285108503843858  5.6549204163217 -0.0367663583678279  5.84791844352455 0.146047981076286  C 6.04091647072738 0.3288623205204  6.04917197871082 0.633518438793615  5.86635763453577 0.826516456534598  L 2.64525160969841 4.22705446717919  C 2.44702327616795 4.43632512359551  2.11055559077469 4.42562711295092  1.92602175280899 4.20418650266115  L 0.12099487167356 2.03815424719102  C -0.0491898379656988 1.8339325890006  -0.0215974452986387 1.53041626020106  0.182624208160846 1.3602315505618  C 0.386845866351265 1.19004683619161  0.690362195150797 1.21763922885867  0.86054690479007 1.42186088704909  L 2.38742314843287 3.25411238320521  C 2.35455706209343 3.24702359787108  2.32044267297456 3.2432909426375  2.28545646836191 3.2432909426375  Z " fill-rule="nonzero" fill="#ffffff" stroke="none" transform="matrix(1 0 0 1 3 4 )" />
  </g>
</svg>