<?xml version="1.0" encoding="utf-8"?>
<svg version="1.1" xmlns:xlink="http://www.w3.org/1999/xlink" width="40px" height="40px" xmlns="http://www.w3.org/2000/svg">
  <g transform="matrix(1 0 0 1 -34 -1302 )">
    <path d="M 34 1302  L 74 1302  L 74 1342  L 34 1342  L 34 1302  " fill-rule="nonzero" fill="#cccccc" stroke="none" />
    <path d="M 37 1305  L 71 1305  L 71 1339  L 37 1339  L 37 1305  " fill-rule="nonzero" fill="#ffffff" stroke="none" />
    <path d="M 57.8 1314  C 56.12 1314  54.8 1312.68  54.8 1311  C 54.8 1309.32  56.12 1308  57.8 1308  C 59.48 1308  60.8 1309.32  60.8 1311  C 60.8 1312.68  59.48 1314  57.8 1314  " fill-rule="nonzero" fill="#cccccc" stroke="none" />
    <path d="M 38 1338  L 38 1320.4  L 46 1312.4  L 57.2 1318.8  L 63.6 1317.2  L 70 1318.8  L 70 1338  L 38 1338  " fill-rule="nonzero" fill="#169bd5" stroke="none" />
  </g>
</svg>