<?xml version="1.0" encoding="utf-8"?>
<svg version="1.1" xmlns:xlink="http://www.w3.org/1999/xlink" width="40px" height="40px" xmlns="http://www.w3.org/2000/svg">
  <g transform="matrix(1 0 0 1 -319 -103 )">
    <path d="M 339 103  C 350.2 103  359 111.8  359 123  C 359 134.2  350.2 143  339 143  C 327.8 143  319 134.2  319 123  C 319 111.8  327.8 103  339 103  Z " fill-rule="nonzero" fill="#ffffff" stroke="none" />
    <path d="M 339 103.5  C 349.92 103.5  358.5 112.08  358.5 123  C 358.5 133.92  349.92 142.5  339 142.5  C 328.08 142.5  319.5 133.92  319.5 123  C 319.5 112.08  328.08 103.5  339 103.5  Z " stroke-width="1" stroke="#797979" fill="none" />
  </g>
</svg>