<?xml version="1.0" encoding="utf-8"?>
<svg version="1.1" xmlns:xlink="http://www.w3.org/1999/xlink" width="6px" height="6px" xmlns="http://www.w3.org/2000/svg">
  <g transform="matrix(1 0 0 1 -17 -68 )">
    <path d="M 2.28545646836191 3.891949131165  C 2.27348887049084 3.891949131165  2.26162327616795 3.89247324234182  2.24987476759314 3.89350337173271  L 5.16744996806624 0.197384612182145  C 5.35026430277942 -0.034213020461263  5.6549204163217 -0.0441196300413935  5.84791844352455 0.175257577291544  C 6.04091647072738 0.39463478462448  6.04917197871082 0.760222126552338  5.86635763453577 0.991819747841518  L 2.64525160969841 5.07246536061502  C 2.44702327616795 5.32359014831461  2.11055559077469 5.3107525355411  1.92602175280899 5.04502380319338  L 0.12099487167356 2.44578509662922  C -0.0491898379656988 2.20071910680072  -0.0215974452986387 1.83649951224128  0.182624208160846 1.63227786067416  C 0.386845866351265 1.42805620342993  0.690362195150797 1.4611670746304  0.86054690479007 1.7062330644589  L 2.38742314843287 3.90493485984625  C 2.35455706209343 3.8964283174453  2.32044267297456 3.891949131165  2.28545646836191 3.891949131165  Z " fill-rule="nonzero" fill="#ffffff" stroke="none" transform="matrix(1 0 0 1 17 68 )" />
  </g>
</svg>