<?xml version="1.0" encoding="utf-8"?>
<svg version="1.1" xmlns:xlink="http://www.w3.org/1999/xlink" width="30px" height="30px" xmlns="http://www.w3.org/2000/svg">
  <defs>
    <filter x="188px" y="319px" width="30px" height="30px" filterUnits="userSpaceOnUse" id="filter14">
      <feOffset dx="0" dy="0" in="SourceAlpha" result="shadowOffsetInner" />
      <feGaussianBlur stdDeviation="2.5" in="shadowOffsetInner" result="shadowGaussian" />
      <feComposite in2="shadowGaussian" operator="atop" in="SourceAlpha" result="shadowComposite" />
      <feColorMatrix type="matrix" values="0 0 0 0 0  0 0 0 0 0  0 0 0 0 0  0 0 0 0.349019607843137 0  " in="shadowComposite" />
    </filter>
    <g id="widget15">
      <path d="M 203 326  C 207.48 326  211 329.52  211 334  C 211 338.48  207.48 342  203 342  C 198.52 342  195 338.48  195 334  C 195 329.52  198.52 326  203 326  Z " fill-rule="nonzero" fill="#1890ff" stroke="none" />
      <path d="M 203 325.5  C 207.76 325.5  211.5 329.24  211.5 334  C 211.5 338.76  207.76 342.5  203 342.5  C 198.24 342.5  194.5 338.76  194.5 334  C 194.5 329.24  198.24 325.5  203 325.5  Z " stroke-width="3" stroke="#d7d7d7" fill="none" />
    </g>
  </defs>
  <g transform="matrix(1 0 0 1 -188 -319 )">
    <use xlink:href="#widget15" filter="url(#filter14)" />
    <use xlink:href="#widget15" />
  </g>
</svg>