<?xml version="1.0" encoding="utf-8"?>
<svg version="1.1" xmlns:xlink="http://www.w3.org/1999/xlink" width="70px" height="90px" xmlns="http://www.w3.org/2000/svg">
  <g transform="matrix(1 0 0 1 -25 -157 )">
    <path d="M 25 157  L 95 157  L 95 247  L 25 247  L 25 157  " fill-rule="nonzero" fill="#cccccc" stroke="none" />
    <path d="M 30 162  L 90 162  L 90 242  L 30 242  L 30 162  " fill-rule="nonzero" fill="#ffffff" stroke="none" />
    <path d="M 66.65 181  C 63.71 181  61.4 178.69  61.4 175.75  C 61.4 172.81  63.71 170.5  66.65 170.5  C 69.59 170.5  71.9 172.81  71.9 175.75  C 71.9 178.69  69.59 181  66.65 181  " fill-rule="nonzero" fill="#cccccc" stroke="none" />
    <path d="M 32 240  L 32 198.2  L 46 179.2  L 65.6 194.4  L 76.8 190.6  L 88 194.4  L 88 240  L 32 240  " fill-rule="nonzero" fill="#169bd5" stroke="none" />
  </g>
</svg>