<?xml version="1.0" encoding="utf-8"?>
<svg version="1.1" xmlns:xlink="http://www.w3.org/1999/xlink" width="60px" height="60px" xmlns="http://www.w3.org/2000/svg">
  <g transform="matrix(1 0 0 1 -158 -118 )">
    <path d="M 188 118  C 204.8 118  218 131.2  218 148  C 218 164.8  204.8 178  188 178  C 171.2 178  158 164.8  158 148  C 158 131.2  171.2 118  188 118  Z " fill-rule="nonzero" fill="#ffffff" stroke="none" />
    <path d="M 188 118.5  C 204.52 118.5  217.5 131.48  217.5 148  C 217.5 164.52  204.52 177.5  188 177.5  C 171.48 177.5  158.5 164.52  158.5 148  C 158.5 131.48  171.48 118.5  188 118.5  Z " stroke-width="1" stroke="#797979" fill="none" />
  </g>
</svg>