<?xml version="1.0" encoding="utf-8"?>
<svg version="1.1" xmlns:xlink="http://www.w3.org/1999/xlink" width="15px" height="15px" xmlns="http://www.w3.org/2000/svg">
  <g transform="matrix(1 0 0 1 -65 0 )">
    <path d="M 7.5000146484375 0.229658203125  C 3.477744140625 0.229658203125  0.21708984375 3.4903271484375  0.21708984375 7.51259765625  C 0.21708984375 11.5348681640625  3.477744140625 14.7955078125  7.5 14.7955078125  C 11.522255859375 14.7955078125  14.78291015625 11.5348681640625  14.78291015625 7.51259765625  C 14.78291015625 3.4903271484375  11.5222998046875 0.229658203125  7.500029296875 0.229658203125  Z M 8.4441796875 7.51259765625  L 10.62322265625 9.6916259765625  C 10.883935546875 9.952412109375  10.883935546875 10.375078125  10.62322265625 10.6358056640625  C 10.362509765625 10.89650390625  9.939755859375 10.89650390625  9.67904296875 10.6358056640625  L 7.5000146484375 8.4567626953125  L 5.3209130859375 10.635791015625  C 5.060185546875 10.8964892578125  4.6375341796875 10.8964892578125  4.3768212890625 10.635791015625  C 4.1160205078125 10.3750634765625  4.1160205078125 9.9523974609375  4.3768212890625 9.691611328125  L 6.5558349609375 7.51259765625  L 4.376806640625 5.3335546875  C 4.1160205078125 5.072841796875  4.1160205078125 4.6501025390625  4.376806640625 4.3893896484375  C 4.6375341796875 4.1286767578125  5.060185546875 4.1286767578125  5.3208984375 4.3893896484375  L 7.5000146484375 6.56841796875  L 9.67904296875 4.3893896484375  C 9.939755859375 4.1286767578125  10.362509765625 4.1286767578125  10.62322265625 4.3893896484375  C 10.883935546875 4.6501025390625  10.883935546875 5.072841796875  10.62322265625 5.3335546875  L 8.4441796875 7.51259765625  Z " fill-rule="nonzero" fill="#969799" stroke="none" transform="matrix(1 0 0 1 65 0 )" />
  </g>
</svg>