<?xml version="1.0" encoding="utf-8"?>
<svg version="1.1" xmlns:xlink="http://www.w3.org/1999/xlink" width="40px" height="40px" xmlns="http://www.w3.org/2000/svg">
  <defs>
    <filter x="183px" y="280px" width="40px" height="40px" filterUnits="userSpaceOnUse" id="filter88">
      <feOffset dx="0" dy="0" in="SourceAlpha" result="shadowOffsetInner" />
      <feGaussianBlur stdDeviation="2.5" in="shadowOffsetInner" result="shadowGaussian" />
      <feComposite in2="shadowGaussian" operator="atop" in="SourceAlpha" result="shadowComposite" />
      <feColorMatrix type="matrix" values="0 0 0 0 0  0 0 0 0 0  0 0 0 0 0  0 0 0 0.349019607843137 0  " in="shadowComposite" />
    </filter>
    <g id="widget89">
      <path d="M 203 290  C 208.6 290  213 294.4  213 300  C 213 305.6  208.6 310  203 310  C 197.4 310  193 305.6  193 300  C 193 294.4  197.4 290  203 290  Z " fill-rule="nonzero" fill="#ffffff" stroke="none" />
      <path d="M 203 288  C 209.72 288  215 293.28  215 300  C 215 306.72  209.72 312  203 312  C 196.28 312  191 306.72  191 300  C 191 293.28  196.28 288  203 288  Z " stroke-width="6" stroke="#1890ff" fill="none" />
    </g>
  </defs>
  <g transform="matrix(1 0 0 1 -183 -280 )">
    <use xlink:href="#widget89" filter="url(#filter88)" />
    <use xlink:href="#widget89" />
  </g>
</svg>