<?xml version="1.0" encoding="utf-8"?>
<svg version="1.1" xmlns:xlink="http://www.w3.org/1999/xlink" width="253px" height="100px" xmlns="http://www.w3.org/2000/svg">
  <g transform="matrix(1 0 0 1 -75.5 -456.5 )">
    <path d="M 1 95  C 0.61732851985559 102.599277978339  11.471564920105 47.9023787551412  37.6141078838174 37  C 49.9565363264518 31.852764330287  56.6721090880008 72.7060921677501  71.3754512635379 69.3862815884477  C 90.4098472148424 65.0885791820583  80.2763485477178 19  96.8672199170124 19  C 113.458091286307 19  110.503391848807 85.5035674002686  128.054151624549 86.7148014440434  C 144.309037722558 87.8366031022714  138.189107028086 29.0223208115036  156.935018050541 21.0108303249098  C 171.710186279442 14.696326881366  175.351528617747 87.9302670318457  189.425992779783 91.7689530685921  C 208.706478815138 97.027535681295  204.082129833391 0.973984162150714  219.750902527076 0.072202166064983  C 237.379188875375 -0.942355359372016  251.898232162713 76.9143570445851  248.270758122744 71.5523465703971  " stroke-width="3" stroke="#1989fa" fill="none" transform="matrix(1 0 0 1 77 458 )" />
  </g>
</svg>