<?xml version="1.0" encoding="utf-8"?>
<svg version="1.1" xmlns:xlink="http://www.w3.org/1999/xlink" width="10px" height="10px" xmlns="http://www.w3.org/2000/svg">
  <g transform="matrix(1 0 0 1 -1 -1 )">
    <path d="M 6 1  C 8.8 1  11 3.2  11 6  C 11 8.8  8.8 11  6 11  C 3.2 11  1 8.8  1 6  C 1 3.2  3.2 1  6 1  Z " fill-rule="nonzero" fill="#07c160" stroke="none" />
    <path d="M 6 1.5  C 8.52 1.5  10.5 3.48  10.5 6  C 10.5 8.52  8.52 10.5  6 10.5  C 3.48 10.5  1.5 8.52  1.5 6  C 1.5 3.48  3.48 1.5  6 1.5  Z " stroke-width="1" stroke="#07c160" fill="none" />
  </g>
</svg>