<?xml version="1.0" encoding="utf-8"?>
<svg version="1.1" xmlns:xlink="http://www.w3.org/1999/xlink" width="246px" height="87px" xmlns="http://www.w3.org/2000/svg">
  <g transform="matrix(1 0 0 1 -77.5 -816.5 )">
    <path d="M 241 0  C 244.604116336728 5.38580225747535  228.836920557749 32.9732285019738  211 34  C 195.122984635908 34.9139507459706  197.881720430107 55.8602150537635  179.602150537634 56.3978494623656  C 161.322580645161 56.9354838709677  166.630239907662 0.669462872124882  151.645161290323 7  C 132.698476241446 15.0041417342501  138.010420419533 79.5743676248912  121.537634408602 78.4408602150537  C 103.781288693767 77.2190298928455  107.8 7  91 7  C 74.2 7  75.8387096774193 50.4838709677418  62.3978494623656 60.6989247311827  C 48.9569892473118 70.9139784946236  40.8836147362953 17.2160132646792  31 25  C 10.247311827957 41.3440860215053  3.25806451612902 66.6129032258065  0 83  " stroke-width="3" stroke="#1b91ff" fill="none" transform="matrix(1 0 0 1 79 818 )" />
  </g>
</svg>