<?xml version="1.0" encoding="utf-8"?>
<svg version="1.1" xmlns:xlink="http://www.w3.org/1999/xlink" width="6px" height="6px" xmlns="http://www.w3.org/2000/svg">
  <g transform="matrix(1 0 0 1 -38 -19 )">
    <path d="M 41 19  C 42.68 19  44 20.32  44 22  C 44 23.68  42.68 25  41 25  C 39.32 25  38 23.68  38 22  C 38 20.32  39.32 19  41 19  Z " fill-rule="nonzero" fill="#f20707" stroke="none" />
    <path d="M 41 19.5  C 42.4 19.5  43.5 20.6  43.5 22  C 43.5 23.4  42.4 24.5  41 24.5  C 39.6 24.5  38.5 23.4  38.5 22  C 38.5 20.6  39.6 19.5  41 19.5  Z " stroke-width="1" stroke="#f20707" fill="none" />
  </g>
</svg>