<?xml version="1.0" encoding="utf-8"?>
<svg version="1.1" xmlns:xlink="http://www.w3.org/1999/xlink" width="50px" height="50px" xmlns="http://www.w3.org/2000/svg">
  <g transform="matrix(1 0 0 1 -20 -148 )">
    <path d="M 45 148  C 59 148  70 159  70 173  C 70 187  59 198  45 198  C 31 198  20 187  20 173  C 20 159  31 148  45 148  Z " fill-rule="nonzero" fill="#ffffff" stroke="none" />
    <path d="M 45 148.5  C 58.72 148.5  69.5 159.28  69.5 173  C 69.5 186.72  58.72 197.5  45 197.5  C 31.28 197.5  20.5 186.72  20.5 173  C 20.5 159.28  31.28 148.5  45 148.5  Z " stroke-width="1" stroke="#797979" fill="none" />
  </g>
</svg>