<?xml version="1.0" encoding="utf-8"?>
<svg version="1.1" xmlns:xlink="http://www.w3.org/1999/xlink" width="14px" height="14px" xmlns="http://www.w3.org/2000/svg">
  <g transform="matrix(1 0 0 1 -74 -12 )">
    <path d="M 81 12  C 84.92 12  88 15.08  88 19  C 88 22.92  84.92 26  81 26  C 77.08 26  74 22.92  74 19  C 74 15.08  77.08 12  81 12  Z " fill-rule="nonzero" fill="#f20707" stroke="none" />
    <path d="M 81 12.5  C 84.64 12.5  87.5 15.36  87.5 19  C 87.5 22.64  84.64 25.5  81 25.5  C 77.36 25.5  74.5 22.64  74.5 19  C 74.5 15.36  77.36 12.5  81 12.5  Z " stroke-width="1" stroke="#f20707" fill="none" />
  </g>
</svg>