<?xml version="1.0" encoding="utf-8"?>
<svg version="1.1" xmlns:xlink="http://www.w3.org/1999/xlink" width="79px" height="74px" xmlns="http://www.w3.org/2000/svg">
  <defs>
    <filter x="290px" y="403px" width="79px" height="74px" filterUnits="userSpaceOnUse" id="filter37">
      <feOffset dx="0" dy="3" in="SourceAlpha" result="shadowOffsetInner" />
      <feGaussianBlur stdDeviation="2.5" in="shadowOffsetInner" result="shadowGaussian" />
      <feComposite in2="shadowGaussian" operator="atop" in="SourceAlpha" result="shadowComposite" />
      <feColorMatrix type="matrix" values="0 0 0 0 0  0 0 0 0 0  0 0 0 0 0  0 0 0 0.349019607843137 0  " in="shadowComposite" />
    </filter>
    <g id="widget38">
      <path d="M 296 410  A 4 4 0 0 1 300 406 L 359 406  A 4 4 0 0 1 363 410 L 363 464  A 4 4 0 0 1 359 468 L 300 468  A 4 4 0 0 1 296 464 L 296 410  Z " fill-rule="nonzero" fill="#ffffff" stroke="none" />
      <path d="M 295.5 410  A 4.5 4.5 0 0 1 300 405.5 L 359 405.5  A 4.5 4.5 0 0 1 363.5 410 L 363.5 464  A 4.5 4.5 0 0 1 359 468.5 L 300 468.5  A 4.5 4.5 0 0 1 295.5 464 L 295.5 410  Z " stroke-width="1" stroke="#f3f3f3" fill="none" stroke-opacity="0.243137254901961" />
    </g>
  </defs>
  <g transform="matrix(1 0 0 1 -290 -403 )">
    <use xlink:href="#widget38" filter="url(#filter37)" />
    <use xlink:href="#widget38" />
  </g>
</svg>