<?xml version="1.0" encoding="utf-8"?>
<svg version="1.1" xmlns:xlink="http://www.w3.org/1999/xlink" width="41px" height="20px" xmlns="http://www.w3.org/2000/svg">
  <defs>
    <mask fill="white" id="clip88">
      <path d="M 0 16  L 0 4  C 0 1.75999999999999  1.76 0  4 0  L 37 0  C 39.24 0  41 1.75999999999999  41 4  L 41 16  C 41 18.24  39.24 20  37 20  L 25.6637168141593 20  L 4 20  C 1.76 20  0 18.24  0 16  Z " fill-rule="evenodd" />
    </mask>
  </defs>
  <g transform="matrix(1 0 0 1 -100 -584 )">
    <path d="M 0 16  L 0 4  C 0 1.75999999999999  1.76 0  4 0  L 37 0  C 39.24 0  41 1.75999999999999  41 4  L 41 16  C 41 18.24  39.24 20  37 20  L 25.6637168141593 20  L 4 20  C 1.76 20  0 18.24  0 16  Z " fill-rule="nonzero" fill="#e6f7ff" stroke="none" transform="matrix(1 0 0 1 100 584 )" />
    <path d="M 0 16  L 0 4  C 0 1.75999999999999  1.76 0  4 0  L 37 0  C 39.24 0  41 1.75999999999999  41 4  L 41 16  C 41 18.24  39.24 20  37 20  L 25.6637168141593 20  L 4 20  C 1.76 20  0 18.24  0 16  Z " stroke-width="2" stroke="#91d5ff" fill="none" transform="matrix(1 0 0 1 100 584 )" mask="url(#clip88)" />
  </g>
</svg>