<?xml version="1.0" encoding="utf-8"?>
<svg version="1.1" xmlns:xlink="http://www.w3.org/1999/xlink" width="20px" height="20px" xmlns="http://www.w3.org/2000/svg">
  <g transform="matrix(1 0 0 1 -20 -378 )">
    <path d="M 30 378  C 35.6 378  40 382.4  40 388  C 40 393.6  35.6 398  30 398  C 24.4 398  20 393.6  20 388  C 20 382.4  24.4 378  30 378  Z " fill-rule="nonzero" fill="#1b91ff" stroke="none" fill-opacity="0.2" />
    <path d="M 30 378.5  C 35.32 378.5  39.5 382.68  39.5 388  C 39.5 393.32  35.32 397.5  30 397.5  C 24.68 397.5  20.5 393.32  20.5 388  C 20.5 382.68  24.68 378.5  30 378.5  Z " stroke-width="1" stroke="#1b91ff" fill="none" />
  </g>
</svg>