<?xml version="1.0" encoding="utf-8"?>
<svg version="1.1" xmlns:xlink="http://www.w3.org/1999/xlink" width="6px" height="6px" xmlns="http://www.w3.org/2000/svg">
  <g transform="matrix(1 0 0 1 -4 -3 )">
    <path d="M 7 3  C 8.68 3  10 4.32  10 6  C 10 7.68  8.68 9  7 9  C 5.32 9  4 7.68  4 6  C 4 4.32  5.32 3  7 3  Z " fill-rule="nonzero" fill="#969799" stroke="none" />
    <path d="M 7 3.5  C 8.4 3.5  9.5 4.6  9.5 6  C 9.5 7.4  8.4 8.5  7 8.5  C 5.6 8.5  4.5 7.4  4.5 6  C 4.5 4.6  5.6 3.5  7 3.5  Z " stroke-width="1" stroke="#969799" fill="none" />
  </g>
</svg>