<?xml version="1.0" encoding="utf-8"?>
<svg version="1.1" xmlns:xlink="http://www.w3.org/1999/xlink" width="6px" height="6px" xmlns="http://www.w3.org/2000/svg">
  <g transform="matrix(1 0 0 1 -3 -3 )">
    <path d="M 6 3  C 7.68 3  9 4.32  9 6  C 9 7.68  7.68 9  6 9  C 4.32 9  3 7.68  3 6  C 3 4.32  4.32 3  6 3  Z " fill-rule="nonzero" fill="#1890ff" stroke="none" />
    <path d="M 6 3.5  C 7.4 3.5  8.5 4.6  8.5 6  C 8.5 7.4  7.4 8.5  6 8.5  C 4.6 8.5  3.5 7.4  3.5 6  C 3.5 4.6  4.6 3.5  6 3.5  Z " stroke-width="1" stroke="#1890ff" fill="none" />
  </g>
</svg>