<?xml version="1.0" encoding="utf-8"?>
<svg version="1.1" xmlns:xlink="http://www.w3.org/1999/xlink" width="70px" height="65px" xmlns="http://www.w3.org/2000/svg">
  <g transform="matrix(1 0 0 1 -25 -543 )">
    <path d="M 25 543  L 95 543  L 95 608  L 25 608  L 25 543  " fill-rule="nonzero" fill="#cccccc" stroke="none" />
    <path d="M 30 548  L 90 548  L 90 603  L 30 603  L 30 548  " fill-rule="nonzero" fill="#ffffff" stroke="none" />
    <path d="M 66.275 562.5  C 63.545 562.5  61.4 560.355  61.4 557.625  C 61.4 554.895  63.545 552.75  66.275 552.75  C 69.005 552.75  71.15 554.895  71.15 557.625  C 71.15 560.355  69.005 562.5  66.275 562.5  " fill-rule="nonzero" fill="#cccccc" stroke="none" />
    <path d="M 32 602  L 32 573.4  L 46.25 560.4  L 66.2 573.028571428571  L 77.6 568.2  L 89 573.028571428571  L 89 602  L 32 602  " fill-rule="nonzero" fill="#169bd5" stroke="none" />
  </g>
</svg>