<?xml version="1.0" encoding="utf-8"?>
<svg version="1.1" xmlns:xlink="http://www.w3.org/1999/xlink" width="81px" height="32px" xmlns="http://www.w3.org/2000/svg">
  <defs>
    <mask fill="white" id="clip1">
      <path d="M 81 27.4285714285714  L 81 4.57142857142857  C 81 2.01142857142857  78.7725 0  75.9375 0  L 0 0  L 0 32  L 75.9375 32  C 78.7725 32  81 29.9885714285714  81 27.4285714285714  Z " fill-rule="evenodd" />
    </mask>
  </defs>
  <g transform="matrix(1 0 0 1 -240 -103 )">
    <path d="M 81 27.4285714285714  L 81 4.57142857142857  C 81 2.01142857142857  78.7725 0  75.9375 0  L 0 0  L 0 32  L 75.9375 32  C 78.7725 32  81 29.9885714285714  81 27.4285714285714  Z " fill-rule="nonzero" fill="#ffffff" stroke="none" transform="matrix(1 0 0 1 240 103 )" />
    <path d="M 81 27.4285714285714  L 81 4.57142857142857  C 81 2.01142857142857  78.7725 0  75.9375 0  L 0 0  L 0 32  L 75.9375 32  C 78.7725 32  81 29.9885714285714  81 27.4285714285714  Z " stroke-width="2" stroke="#d9d9d9" fill="none" transform="matrix(1 0 0 1 240 103 )" mask="url(#clip1)" />
  </g>
</svg>