<?xml version="1.0" encoding="utf-8"?>
<svg version="1.1" xmlns:xlink="http://www.w3.org/1999/xlink" width="60px" height="60px" xmlns="http://www.w3.org/2000/svg">
  <g transform="matrix(1 0 0 1 -158 -160 )">
    <path d="M 188 160  C 204.8 160  218 173.2  218 190  C 218 206.8  204.8 220  188 220  C 171.2 220  158 206.8  158 190  C 158 173.2  171.2 160  188 160  Z " fill-rule="nonzero" fill="#ffffff" stroke="none" />
    <path d="M 188 160.5  C 204.52 160.5  217.5 173.48  217.5 190  C 217.5 206.52  204.52 219.5  188 219.5  C 171.48 219.5  158.5 206.52  158.5 190  C 158.5 173.48  171.48 160.5  188 160.5  Z " stroke-width="1" stroke="#797979" fill="none" />
  </g>
</svg>