<?xml version="1.0" encoding="utf-8"?>
<svg version="1.1" xmlns:xlink="http://www.w3.org/1999/xlink" width="20px" height="20px" xmlns="http://www.w3.org/2000/svg">
  <g transform="matrix(1 0 0 1 -147 -935 )">
    <path d="M 157 935  C 162.6 935  167 939.4  167 945  C 167 950.6  162.6 955  157 955  C 151.4 955  147 950.6  147 945  C 147 939.4  151.4 935  157 935  Z " fill-rule="nonzero" fill="#1989fa" stroke="none" />
    <path d="M 157 935.5  C 162.32 935.5  166.5 939.68  166.5 945  C 166.5 950.32  162.32 954.5  157 954.5  C 151.68 954.5  147.5 950.32  147.5 945  C 147.5 939.68  151.68 935.5  157 935.5  Z " stroke-width="1" stroke="#1989fa" fill="none" />
  </g>
</svg>