<?xml version="1.0" encoding="utf-8"?>
<svg version="1.1" xmlns:xlink="http://www.w3.org/1999/xlink" width="20px" height="20px" xmlns="http://www.w3.org/2000/svg">
  <g transform="matrix(1 0 0 1 -20 -390 )">
    <path d="M 30 390  C 35.6 390  40 394.4  40 400  C 40 405.6  35.6 410  30 410  C 24.4 410  20 405.6  20 400  C 20 394.4  24.4 390  30 390  Z " fill-rule="nonzero" fill="#1b91ff" stroke="none" fill-opacity="0.2" />
    <path d="M 30 390.5  C 35.32 390.5  39.5 394.68  39.5 400  C 39.5 405.32  35.32 409.5  30 409.5  C 24.68 409.5  20.5 405.32  20.5 400  C 20.5 394.68  24.68 390.5  30 390.5  Z " stroke-width="1" stroke="#1b91ff" fill="none" />
  </g>
</svg>